<?xml version="1.0" encoding="utf-8"?>
<!-- Generator: Adobe Illustrator 24.2.3, SVG Export Plug-In . SVG Version: 6.00 Build 0)  -->
<svg version="1.1" id="Layer_1" xmlns="http://www.w3.org/2000/svg" xmlns:xlink="http://www.w3.org/1999/xlink" x="0px" y="0px"
	 viewBox="0 0 752 752" style="enable-background:new 0 0 752 752;" xml:space="preserve">
<g>
	<path d="M380.2,279.2c-9.4,0-17,7.6-17,17v128.3H238.9c-9.4,0-17.1,7.6-17.1,17.1c0,9.4,7.6,17,17.1,17h141.3c4.5,0,8.9-1.8,12.1-5
		c3.2-3.1,5-7.6,5-12V296.2C397.2,286.8,389.6,279.2,380.2,279.2L380.2,279.2z"/>
	<path d="M627.1,430.1c0-40-9.5-77.7-26-111.4c7.6-2.5,14.4-6.5,20.1-12.1c26.5-26.7,16.9-79.4-21.6-117.6
		c-38.5-38.3-91.2-47.6-117.7-20.9c-7.2,7.3-11.7,16.5-13.7,26.9c-29.3-11.8-61.2-18.5-94.7-18.5c-32.4,0-63.3,6.3-91.8,17.4
		c-2.2-9.5-6.6-18-13.3-24.9c-26.6-26.7-79.3-17.3-117.7,21c-38.5,38.3-48.1,90.9-21.6,117.6c4.9,4.9,10.6,8.6,16.9,11
		c-16.5,33.7-26.1,71.4-26.1,111.5c0,83.3,40.3,157,102.4,203.2L202,665c-10.2,15.9-5.5,36.9,10.3,47.1c5.7,3.6,12,5.4,18.3,5.4
		c11.3,0,22.2-5.5,28.7-15.7l22.6-35.3c28.4,11,59.2,17.3,91.4,17.3c34,0,66.3-6.8,96-18.9l24.2,38c6.5,10.1,17.5,15.7,28.8,15.7
		c6.3,0,12.7-1.7,18.3-5.4c15.8-10.1,20.5-31.2,10.3-47.1l-22.7-35.4C588.4,584.2,627.1,511.7,627.1,430.1L627.1,430.1z
		 M373.5,615.5c-102.4-0.2-185.2-83-185.4-185.4c0.2-102.4,83-185.3,185.4-185.4c102.4,0.2,185.2,83,185.4,185.4
		C558.7,532.5,475.9,615.3,373.5,615.5L373.5,615.5z"/>
	<path d="M161,126.3c-6.1-6.1-16-6.1-22,0L88.2,177c-6.1,6.1-6.1,16,0,22c3,3,7,4.6,11,4.6c4,0,8-1.5,11-4.6l50.7-50.7
		C167.1,142.3,167.1,132.4,161,126.3L161,126.3z"/>
	<path d="M144.1,71.5c-6.1-6.1-16-6.1-22.1,0l-94.6,94.6c-6.1,6.1-6.1,16,0,22.1c3,3.1,7,4.6,11,4.6c4,0,8-1.5,11-4.6l94.6-94.6
		C150.2,87.5,150.2,77.6,144.1,71.5L144.1,71.5z"/>
	<path d="M611.3,126.3c-6.1-6.1-15.9-6.1-22,0c-6.1,6.1-6.1,15.9,0,22l50.7,50.7c3.1,3,7,4.6,11,4.6c4,0,8-1.5,11-4.6
		c6.1-6.1,6.1-16,0-22L611.3,126.3z"/>
	<path d="M722.8,166.1l-94.6-94.6c-6.1-6.1-16-6.1-22.1,0c-6.1,6.1-6.1,16,0,22.1l94.6,94.6c3.1,3.1,7.1,4.6,11,4.6
		c4,0,8-1.5,11-4.6C728.9,182.1,728.9,172.2,722.8,166.1L722.8,166.1z"/>
</g>
</svg>
